<svg width="0" height="0" class="hidden">
  <symbol version="1.1" xmlns="http://www.w3.org/2000/svg" xmlns:xlink="http://www.w3.org/1999/xlink" viewBox="0 -6.5 38 38" id="right-arrow">
    <title>right-arrow</title>
    <desc>Created with Sketch.</desc>
    <g id="icons" stroke="none" stroke-width="1" fill="none" fill-rule="evenodd">
      <g id="ui-gambling-website-lined-icnos-casinoshunter" transform="translate(-1511.000000, -158.000000)" fill="#1C1C1F" fill-rule="nonzero">
        <g id="1" transform="translate(1350.000000, 120.000000)">
          <path d="M187.812138,38.5802109 L198.325224,49.0042713 L198.41312,49.0858421 C198.764883,49.4346574 198.96954,49.8946897 199,50.4382227 L198.998248,50.6209428 C198.97273,51.0514917 198.80819,51.4628128 198.48394,51.8313977 L198.36126,51.9580208 L187.812138,62.4197891 C187.031988,63.1934036 185.770571,63.1934036 184.990421,62.4197891 C184.205605,61.6415481 184.205605,60.3762573 184.990358,59.5980789 L192.274264,52.3739093 L162.99947,52.3746291 C161.897068,52.3746291 161,51.4850764 161,50.3835318 C161,49.2819872 161.897068,48.3924345 162.999445,48.3924345 L192.039203,48.3917152 L184.990421,41.4019837 C184.205605,40.6237427 184.205605,39.3584519 184.990421,38.5802109 C185.770571,37.8065964 187.031988,37.8065964 187.812138,38.5802109 Z" id="right-arrow"></path>
        </g>
      </g>
    </g>
  </symbol>
  <symbol fill="blue" xmlns="http://www.w3.org/2000/svg" viewBox="0 0 24 24" id="star">
    <path d="M9.15316 5.40838C10.4198 3.13613 11.0531 2 12 2C12.9469 2 13.5802 3.13612 14.8468 5.40837L15.1745 5.99623C15.5345 6.64193 15.7144 6.96479 15.9951 7.17781C16.2757 7.39083 16.6251 7.4699 17.3241 7.62805L17.9605 7.77203C20.4201 8.32856 21.65 8.60682 21.9426 9.54773C22.2352 10.4886 21.3968 11.4691 19.7199 13.4299L19.2861 13.9372C18.8096 14.4944 18.5713 14.773 18.4641 15.1177C18.357 15.4624 18.393 15.8341 18.465 16.5776L18.5306 17.2544C18.7841 19.8706 18.9109 21.1787 18.1449 21.7602C17.3788 22.3417 16.2273 21.8115 13.9243 20.7512L13.3285 20.4768C12.6741 20.1755 12.3469 20.0248 12 20.0248C11.6531 20.0248 11.3259 20.1755 10.6715 20.4768L10.0757 20.7512C7.77268 21.8115 6.62118 22.3417 5.85515 21.7602C5.08912 21.1787 5.21588 19.8706 5.4694 17.2544L5.53498 16.5776C5.60703 15.8341 5.64305 15.4624 5.53586 15.1177C5.42868 14.773 5.19043 14.4944 4.71392 13.9372L4.2801 13.4299C2.60325 11.4691 1.76482 10.4886 2.05742 9.54773C2.35002 8.60682 3.57986 8.32856 6.03954 7.77203L6.67589 7.62805C7.37485 7.4699 7.72433 7.39083 8.00494 7.17781C8.28555 6.96479 8.46553 6.64194 8.82547 5.99623L9.15316 5.40838Z" stroke="#1C274C" stroke-width="1.5"></path>
  </symbol>
</svg>